<?xml version="1.0" standalone="no"?><!DOCTYPE svg PUBLIC "-//W3C//DTD SVG 1.1//EN" "http://www.w3.org/Graphics/SVG/1.1/DTD/svg11.dtd"><svg t="1536569662208" class="icon" style="" viewBox="0 0 1024 1024" version="1.1" xmlns="http://www.w3.org/2000/svg" p-id="1999" xmlns:xlink="http://www.w3.org/1999/xlink" width="32" height="32"><defs><style type="text/css"></style></defs><path d="M21.333333 0v1024" p-id="2000" fill="#ffffff"></path><path d="M42.666667 0v1024" p-id="2001" fill="#ffffff"></path><path d="M64 0v1024" p-id="2002" fill="#ffffff"></path><path d="M85.333333 0v1024" p-id="2003" fill="#ffffff"></path><path d="M106.666667 0v1024" p-id="2004" fill="#ffffff"></path><path d="M128 0v1024" p-id="2005" fill="#ffffff"></path><path d="M149.333333 0v1024" p-id="2006" fill="#ffffff"></path><path d="M170.666667 0v1024" p-id="2007" fill="#ffffff"></path><path d="M192 0v1024" p-id="2008" fill="#ffffff"></path><path d="M213.333333 0v1024" p-id="2009" fill="#ffffff"></path><path d="M234.666667 0v1024" p-id="2010" fill="#ffffff"></path><path d="M256 0v1024" p-id="2011" fill="#ffffff"></path><path d="M277.333333 0v1024" p-id="2012" fill="#ffffff"></path><path d="M298.666667 0v1024" p-id="2013" fill="#ffffff"></path><path d="M320 0v1024" p-id="2014" fill="#ffffff"></path><path d="M341.333333 0v1024" p-id="2015" fill="#ffffff"></path><path d="M362.666667 0v1024" p-id="2016" fill="#ffffff"></path><path d="M384 0v1024" p-id="2017" fill="#ffffff"></path><path d="M405.333333 0v1024" p-id="2018" fill="#ffffff"></path><path d="M426.666667 0v1024" p-id="2019" fill="#ffffff"></path><path d="M448 0v1024" p-id="2020" fill="#ffffff"></path><path d="M469.333333 0v1024" p-id="2021" fill="#ffffff"></path><path d="M490.666667 0v1024" p-id="2022" fill="#ffffff"></path><path d="M512 0v1024" p-id="2023" fill="#ffffff"></path><path d="M533.333333 0v1024" p-id="2024" fill="#ffffff"></path><path d="M554.666667 0v1024" p-id="2025" fill="#ffffff"></path><path d="M576 0v1024" p-id="2026" fill="#ffffff"></path><path d="M597.333333 0v1024" p-id="2027" fill="#ffffff"></path><path d="M618.666667 0v1024" p-id="2028" fill="#ffffff"></path><path d="M640 0v1024" p-id="2029" fill="#ffffff"></path><path d="M661.333333 0v1024" p-id="2030" fill="#ffffff"></path><path d="M682.666667 0v1024" p-id="2031" fill="#ffffff"></path><path d="M704 0v1024" p-id="2032" fill="#ffffff"></path><path d="M725.333333 0v1024" p-id="2033" fill="#ffffff"></path><path d="M746.666667 0v1024" p-id="2034" fill="#ffffff"></path><path d="M768 0v1024" p-id="2035" fill="#ffffff"></path><path d="M789.333333 0v1024" p-id="2036" fill="#ffffff"></path><path d="M810.666667 0v1024" p-id="2037" fill="#ffffff"></path><path d="M832 0v1024" p-id="2038" fill="#ffffff"></path><path d="M853.333333 0v1024" p-id="2039" fill="#ffffff"></path><path d="M874.666667 0v1024" p-id="2040" fill="#ffffff"></path><path d="M896 0v1024" p-id="2041" fill="#ffffff"></path><path d="M917.333333 0v1024" p-id="2042" fill="#ffffff"></path><path d="M938.666667 0v1024" p-id="2043" fill="#ffffff"></path><path d="M960 0v1024" p-id="2044" fill="#ffffff"></path><path d="M981.333333 0v1024" p-id="2045" fill="#ffffff"></path><path d="M1002.666667 0v1024M0 21.333333h1024" p-id="2046" fill="#ffffff"></path><path d="M0 42.666667h1024" p-id="2047" fill="#ffffff"></path><path d="M0 64h1024" p-id="2048" fill="#ffffff"></path><path d="M0 85.333333h1024" p-id="2049" fill="#ffffff"></path><path d="M0 106.666667h1024" p-id="2050" fill="#ffffff"></path><path d="M0 128h1024" p-id="2051" fill="#ffffff"></path><path d="M0 149.333333h1024" p-id="2052" fill="#ffffff"></path><path d="M0 170.666667h1024" p-id="2053" fill="#ffffff"></path><path d="M0 192h1024" p-id="2054" fill="#ffffff"></path><path d="M0 213.333333h1024" p-id="2055" fill="#ffffff"></path><path d="M0 234.666667h1024" p-id="2056" fill="#ffffff"></path><path d="M0 256h1024" p-id="2057" fill="#ffffff"></path><path d="M0 277.333333h1024" p-id="2058" fill="#ffffff"></path><path d="M0 298.666667h1024" p-id="2059" fill="#ffffff"></path><path d="M0 320h1024" p-id="2060" fill="#ffffff"></path><path d="M0 341.333333h1024" p-id="2061" fill="#ffffff"></path><path d="M0 362.666667h1024" p-id="2062" fill="#ffffff"></path><path d="M0 384h1024" p-id="2063" fill="#ffffff"></path><path d="M0 405.333333h1024" p-id="2064" fill="#ffffff"></path><path d="M0 426.666667h1024" p-id="2065" fill="#ffffff"></path><path d="M0 448h1024" p-id="2066" fill="#ffffff"></path><path d="M0 469.333333h1024" p-id="2067" fill="#ffffff"></path><path d="M0 490.666667h1024" p-id="2068" fill="#ffffff"></path><path d="M0 512h1024" p-id="2069" fill="#ffffff"></path><path d="M0 533.333333h1024" p-id="2070" fill="#ffffff"></path><path d="M0 554.666667h1024" p-id="2071" fill="#ffffff"></path><path d="M0 576h1024" p-id="2072" fill="#ffffff"></path><path d="M0 597.333333h1024" p-id="2073" fill="#ffffff"></path><path d="M0 618.666667h1024" p-id="2074" fill="#ffffff"></path><path d="M0 640h1024" p-id="2075" fill="#ffffff"></path><path d="M0 661.333333h1024" p-id="2076" fill="#ffffff"></path><path d="M0 682.666667h1024" p-id="2077" fill="#ffffff"></path><path d="M0 704h1024" p-id="2078" fill="#ffffff"></path><path d="M0 725.333333h1024" p-id="2079" fill="#ffffff"></path><path d="M0 746.666667h1024" p-id="2080" fill="#ffffff"></path><path d="M0 768h1024" p-id="2081" fill="#ffffff"></path><path d="M0 789.333333h1024" p-id="2082" fill="#ffffff"></path><path d="M0 810.666667h1024" p-id="2083" fill="#ffffff"></path><path d="M0 832h1024" p-id="2084" fill="#ffffff"></path><path d="M0 853.333333h1024" p-id="2085" fill="#ffffff"></path><path d="M0 874.666667h1024" p-id="2086" fill="#ffffff"></path><path d="M0 896h1024" p-id="2087" fill="#ffffff"></path><path d="M0 917.333333h1024" p-id="2088" fill="#ffffff"></path><path d="M0 938.666667h1024" p-id="2089" fill="#ffffff"></path><path d="M0 960h1024" p-id="2090" fill="#ffffff"></path><path d="M0 981.333333h1024" p-id="2091" fill="#ffffff"></path><path d="M0 1002.666667h1024" p-id="2092" fill="#ffffff"></path><path d="M810 274L572 512l238 238-60 60L512 572 274 810l-60-60L452 512 214 274l60-60L512 452l238-238z" p-id="2093" fill="#ffffff"></path></svg>