<?xml version="1.0" standalone="no"?><!DOCTYPE svg PUBLIC "-//W3C//DTD SVG 1.1//EN" "http://www.w3.org/Graphics/SVG/1.1/DTD/svg11.dtd"><svg t="1536319677248" class="icon" style="" viewBox="0 0 1024 1024" version="1.1" xmlns="http://www.w3.org/2000/svg" p-id="1923" xmlns:xlink="http://www.w3.org/1999/xlink" width="16" height="16"><defs><style type="text/css"></style></defs><path d="M1010.369 186.185c-16.149-18.105-43.091-19.039-60.091-1.783L395.997 744.208 73.764 418.658c-17.083-17.169-43.944-16.406-60.094 1.7-16.15 18.105-15.469 46.919 1.617 64.091l351.472 355.125c2.719 2.723 5.864 4.25 9.008 6.037 1.444 0.936 2.638 2.211 4.167 2.801 5.185 2.299 10.625 3.574 16.063 3.574 5.438 0 10.881-1.275 15.979-3.486 1.444-0.592 2.635-1.867 3.995-2.717 3.146-1.787 6.461-3.4 9.183-6.123l583.516-589.384c17.086-17.256 17.85-45.901 1.699-64.091z" p-id="1924" fill="#ffffff"></path></svg>